<svg xmlns="http://www.w3.org/2000/svg" width="24" height="24" viewBox="0 0 24 24"><g fill="none"><path fill="#f5841f" d="m19.628 11.989l.81-.93l-.353-.252l.563-.505l-.434-.321l.563-.413l-.363-.276l.586-2.8l-.891-2.592m0 0l-5.723 2.077H9.614L3.89 3.9L3 6.493l.598 2.8l-.375.275l.574.413l-.433.321l.562.505l-.351.252l.809.93l-1.232 3.717l1.138 3.797l3.999-1.078l.774.62l1.583 1.055h2.708l1.584-1.056l.773-.619l4.01 1.078l1.15-3.797l-1.243-3.717"/><path fill="#e27625" d="m20.109 3.9l-7.024 5.06l1.301-2.983zm-16.218 0l6.966 5.106l-1.243-3.03zm13.697 11.737l-1.877 2.776l4.01 1.079l1.15-3.798zm-14.436.057l1.138 3.798l3.999-1.079l-1.865-2.776z"/><path fill="#e27625" d="m8.078 10.933l-1.114 1.64l3.963.173l-.129-4.153zm7.856 0l-2.767-2.386l-.082 4.199l3.963-.172zm-7.645 7.481l2.404-1.125l-2.076-1.56zm5.031-1.124l2.391 1.124l-.328-2.685z"/><path fill="#d7c1b3" d="m15.711 18.414l-2.392-1.125l.2 1.515l-.024.642zm-7.422 0l2.228 1.032l-.012-.642l.188-1.515z"/><path fill="#2f343b" d="m10.552 14.72l-1.982-.563l1.407-.631zm2.896 0l.586-1.194l1.408.631z"/><path fill="#cc6228" d="m8.289 18.414l.351-2.777l-2.216.057zm7.082-2.777l.34 2.776l1.877-2.719zm1.677-3.063l-3.963.172l.363 1.973l.586-1.193l1.408.631zM8.57 14.157l1.407-.631l.575 1.193l.375-1.973l-3.963-.172z"/><path fill="#e27625" d="m6.964 12.574l1.653 3.155l-.047-1.572zm8.478 1.583l-.059 1.572l1.665-3.155zm-4.515-1.411l-.375 1.973l.469 2.34l.105-3.074zm2.158 0l-.2 1.227l.094 3.087l.47-2.34z"/><path fill="#f5841f" d="m13.448 14.72l-.469 2.34l.34.23l2.064-1.561l.059-1.572zm-4.878-.563l.047 1.572l2.076 1.56l.328-.23l-.47-2.34z"/><path fill="#c0ad9e" d="m13.495 19.446l.024-.642l-.188-.15h-2.662l-.164.15l.012.642l-2.228-1.033l.774.62l1.583 1.067h2.708l1.584-1.067l.773-.62z"/><path fill="#2f343b" d="m13.32 17.29l-.34-.23h-1.96l-.327.23l-.188 1.514l.164-.15h2.662l.188.15z"/><path fill="#763e1a" d="m20.414 9.292l.586-2.8l-.891-2.592l-6.79 4.888l2.615 2.145l3.694 1.056l.81-.93l-.353-.252l.563-.494l-.434-.332l.563-.413zM3 6.493l.598 2.8l-.375.275l.563.424l-.434.321l.563.494l-.352.252l.82.93l3.695-1.056l2.615-2.145L3.89 3.9z"/><path fill="#f5841f" d="m19.628 11.989l-3.694-1.056l1.114 1.64l-1.665 3.156l2.205-.035h3.283zm-11.55-1.056l-3.694 1.056l-1.232 3.705h3.272l2.193.035l-1.653-3.155zm5.007 1.813l.234-3.958l1.067-2.811H9.614l1.079 2.81l.234 3.959l.094 1.239v3.075h1.958l.012-3.075z"/></g></svg>